solid ardunio-cabus-case-top
facet normal 0.0 0.0 -1.0
outer loop
vertex 94.92406003290272 83.40954898090729 0.0
vertex 35.924060032902716 2.409548980907279 0.0
vertex 35.924060032902716 83.40954898090729 0.0
endloop
endfacet
facet normal 0.0 0.0 -1.0
outer loop
vertex 35.924060032902716 2.409548980907279 0.0
vertex 94.92406003290272 83.40954898090729 0.0
vertex 94.92406003290272 2.409548980907279 0.0
endloop
endfacet
facet normal 1.0 0.0 0.0
outer loop
vertex 94.92406003290272 83.40954898090729 0.0
vertex 94.92406003290272 2.409548980907279 1.9999999999999998
vertex 94.92406003290272 2.409548980907279 0.0
endloop
endfacet
facet normal 1.0 0.0 0.0
outer loop
vertex 94.92406003290272 2.409548980907279 1.9999999999999998
vertex 94.92406003290272 83.40954898090729 0.0
vertex 94.92406003290272 83.40954898090729 1.9999999999999998
endloop
endfacet
facet normal -0.0 -1.0 -0.0
outer loop
vertex 94.92406003290272 2.409548980907279 1.9999999999999998
vertex 35.924060032902716 2.409548980907279 0.0
vertex 94.92406003290272 2.409548980907279 0.0
endloop
endfacet
facet normal -0.0 -1.0 -0.0
outer loop
vertex 35.924060032902716 2.409548980907279 0.0
vertex 94.92406003290272 2.409548980907279 1.9999999999999998
vertex 35.924060032902716 2.409548980907279 1.9999999999999998
endloop
endfacet
facet normal -1.0 0.0 0.0
outer loop
vertex 35.924060032902716 83.40954898090729 1.9999999999999998
vertex 35.924060032902716 2.409548980907279 0.0
vertex 35.924060032902716 2.409548980907279 1.9999999999999998
endloop
endfacet
facet normal -1.0 0.0 0.0
outer loop
vertex 35.924060032902716 2.409548980907279 0.0
vertex 35.924060032902716 83.40954898090729 1.9999999999999998
vertex 35.924060032902716 83.40954898090729 0.0
endloop
endfacet
facet normal -0.0 1.0 0.0
outer loop
vertex 35.924060032902716 83.40954898090729 1.9999999999999998
vertex 94.92406003290272 83.40954898090729 0.0
vertex 35.924060032902716 83.40954898090729 0.0
endloop
endfacet
facet normal -0.0 1.0 0.0
outer loop
vertex 94.92406003290272 83.40954898090729 0.0
vertex 35.924060032902716 83.40954898090729 1.9999999999999998
vertex 43.694060032902726 83.40954898090729 1.9999999999999887
endloop
endfacet
facet normal -0.0 1.0 0.0
outer loop
vertex 43.694060032902726 83.40954898090729 1.9999999999999887
vertex 94.92406003290272 83.40954898090729 1.9999999999999998
vertex 94.92406003290272 83.40954898090729 0.0
endloop
endfacet
facet normal -0.0 1.0 0.0
outer loop
vertex 94.92406003290272 83.40954898090729 1.9999999999999998
vertex 43.694060032902726 83.40954898090729 1.9999999999999887
vertex 74.82406003290272 83.40954898090729 2.000000000000011
endloop
endfacet
facet normal -0.0 1.0 0.0
outer loop
vertex 74.82406003290272 83.40954898090729 2.000000000000011
vertex 43.694060032902726 83.40954898090729 1.9999999999999887
vertex 43.69406003290272 83.40954898090729 4.999999999999992
endloop
endfacet
facet normal -0.0 1.0 0.0
outer loop
vertex 74.82406003290272 83.40954898090729 2.000000000000011
vertex 43.69406003290272 83.40954898090729 4.999999999999992
vertex 74.82406003290272 83.40954898090729 5.000000000000016
endloop
endfacet
facet normal -0.0 -0.0 1.0
outer loop
vertex 90.92406003290273 6.409548980907278 1.9999999999999998
vertex 39.92406003290272 79.40954898090729 1.9999999999999998
vertex 39.92406003290272 6.409548980907278 1.9999999999999998
endloop
endfacet
facet normal -0.0 -0.0 1.0
outer loop
vertex 39.92406003290272 79.40954898090729 1.9999999999999998
vertex 90.92406003290273 6.409548980907278 1.9999999999999998
vertex 90.92406003290273 79.40954898090729 1.9999999999999998
endloop
endfacet
facet normal -8.390692863348457e-17 -1.0743121138272e-17 1.0
outer loop
vertex 35.924060032902716 2.409548980907279 1.9999999999999998
vertex 38.02406003290272 4.509548980907276 1.9999999999999998
vertex 35.924060032902716 83.40954898090729 1.9999999999999998
endloop
endfacet
facet normal -8.390692863348457e-17 -1.0743121138272e-17 1.0
outer loop
vertex 38.02406003290272 4.509548980907276 1.9999999999999998
vertex 35.924060032902716 2.409548980907279 1.9999999999999998
vertex 94.92406003290272 2.409548980907279 1.9999999999999998
endloop
endfacet
facet normal -8.390692863348457e-17 -1.0743121138272e-17 1.0
outer loop
vertex 38.02406003290272 4.509548980907276 1.9999999999999998
vertex 94.92406003290272 2.409548980907279 1.9999999999999998
vertex 92.82406003290272 4.509548980907276 1.9999999999999998
endloop
endfacet
facet normal -8.390692863348457e-17 -1.0743121138272e-17 1.0
outer loop
vertex 92.82406003290272 4.509548980907276 1.9999999999999998
vertex 94.92406003290272 2.409548980907279 1.9999999999999998
vertex 92.82406003290272 81.30954898090728 1.9999999999999996
endloop
endfacet
facet normal -8.390692863348457e-17 -1.0743121138272e-17 1.0
outer loop
vertex 92.82406003290272 81.30954898090728 1.9999999999999996
vertex 74.82406003290272 83.40954898090729 2.000000000000011
vertex 74.82406003290272 81.30954898090728 2.0000000000000107
endloop
endfacet
facet normal -8.390692863348457e-17 -1.0743121138272e-17 1.0
outer loop
vertex 74.82406003290272 83.40954898090729 2.000000000000011
vertex 92.82406003290272 81.30954898090728 1.9999999999999996
vertex 94.92406003290272 83.40954898090729 1.9999999999999998
endloop
endfacet
facet normal -8.390692863348457e-17 -1.0743121138272e-17 1.0
outer loop
vertex 94.92406003290272 83.40954898090729 1.9999999999999998
vertex 92.82406003290272 81.30954898090728 1.9999999999999996
vertex 94.92406003290272 2.409548980907279 1.9999999999999998
endloop
endfacet
facet normal -8.390692863348457e-17 -1.0743121138272e-17 1.0
outer loop
vertex 35.924060032902716 83.40954898090729 1.9999999999999998
vertex 38.02406003290272 81.30954898090728 1.9999999999999998
vertex 43.694060032902726 83.40954898090729 1.9999999999999887
endloop
endfacet
facet normal -8.390692863348457e-17 -1.0743121138272e-17 1.0
outer loop
vertex 38.02406003290272 81.30954898090728 1.9999999999999998
vertex 35.924060032902716 83.40954898090729 1.9999999999999998
vertex 38.02406003290272 4.509548980907276 1.9999999999999998
endloop
endfacet
facet normal -8.390692863348457e-17 -1.0743121138272e-17 1.0
outer loop
vertex 43.694060032902726 83.40954898090729 1.9999999999999887
vertex 38.02406003290272 81.30954898090728 1.9999999999999998
vertex 43.694060032902726 81.30954898090728 1.999999999999995
endloop
endfacet
facet normal 1.0 0.0 0.0
outer loop
vertex 92.82406003290272 81.30954898090728 1.9999999999999996
vertex 92.82406003290272 4.509548980907276 7.999999999999999
vertex 92.82406003290272 4.509548980907276 1.9999999999999998
endloop
endfacet
facet normal 1.0 0.0 0.0
outer loop
vertex 92.82406003290272 4.509548980907276 7.999999999999999
vertex 92.82406003290272 81.30954898090728 1.9999999999999996
vertex 92.82406003290272 81.30954898090728 7.999999999999999
endloop
endfacet
facet normal 3.1332960917198756e-16 1.0 -1.409983241273949e-15
outer loop
vertex 74.82406003290272 81.30954898090728 2.0000000000000107
vertex 92.82406003290272 81.30954898090728 7.999999999999999
vertex 92.82406003290272 81.30954898090728 1.9999999999999996
endloop
endfacet
facet normal 3.1332960917198756e-16 1.0 -1.409983241273949e-15
outer loop
vertex 92.82406003290272 81.30954898090728 7.999999999999999
vertex 74.82406003290272 81.30954898090728 2.0000000000000107
vertex 74.92406003290273 81.3095489809073 5.000000000000015
endloop
endfacet
facet normal 3.1332960917198756e-16 1.0 -1.409983241273949e-15
outer loop
vertex 74.92406003290273 81.3095489809073 5.000000000000015
vertex 74.82406003290272 81.30954898090728 2.0000000000000107
vertex 74.82406003290272 81.3095489809073 5.000000000000015
endloop
endfacet
facet normal 3.1332960917198756e-16 1.0 -1.409983241273949e-15
outer loop
vertex 92.82406003290272 81.30954898090728 7.999999999999999
vertex 74.92406003290273 81.3095489809073 5.000000000000015
vertex 74.92406003290273 81.3095489809073 8.000000000000014
endloop
endfacet
facet normal -1.2659782188767213e-15 1.0 -1.0254423572901452e-15
outer loop
vertex 38.02406003290272 81.30954898090728 1.9999999999999998
vertex 43.69406003290272 81.3095489809073 4.999999999999999
vertex 43.694060032902726 81.30954898090728 1.999999999999995
endloop
endfacet
facet normal -1.2659782188767213e-15 1.0 -1.0254423572901452e-15
outer loop
vertex 43.69406003290272 81.3095489809073 4.999999999999999
vertex 38.02406003290272 81.30954898090728 1.9999999999999998
vertex 38.02406003290272 81.30954898090728 7.999999999999999
endloop
endfacet
facet normal -1.2659782188767213e-15 1.0 -1.0254423572901452e-15
outer loop
vertex 43.69406003290272 81.3095489809073 4.999999999999999
vertex 38.02406003290272 81.30954898090728 7.999999999999999
vertex 43.69406003290272 81.3095489809073 7.9999999999999964
endloop
endfacet
facet normal -1.0 -0.0 -0.0
outer loop
vertex 38.02406003290272 81.30954898090728 7.999999999999999
vertex 38.02406003290272 4.509548980907276 1.9999999999999998
vertex 38.02406003290272 4.509548980907276 7.999999999999999
endloop
endfacet
facet normal -1.0 -0.0 -0.0
outer loop
vertex 38.02406003290272 4.509548980907276 1.9999999999999998
vertex 38.02406003290272 81.30954898090728 7.999999999999999
vertex 38.02406003290272 81.30954898090728 1.9999999999999998
endloop
endfacet
facet normal 0.0 -1.0 0.0
outer loop
vertex 92.82406003290272 4.509548980907276 7.999999999999999
vertex 38.02406003290272 4.509548980907276 1.9999999999999998
vertex 92.82406003290272 4.509548980907276 1.9999999999999998
endloop
endfacet
facet normal 0.0 -1.0 0.0
outer loop
vertex 38.02406003290272 4.509548980907276 1.9999999999999998
vertex 92.82406003290272 4.509548980907276 7.999999999999999
vertex 38.02406003290272 4.509548980907276 7.999999999999999
endloop
endfacet
facet normal 0.0 -1.0 0.0
outer loop
vertex 90.92406003290273 79.40954898090729 1.9999999999999998
vertex 74.92406003290273 79.4095489809073 5.000000000000016
vertex 39.92406003290272 79.40954898090729 1.9999999999999998
endloop
endfacet
facet normal 0.0 -1.0 0.0
outer loop
vertex 74.92406003290273 79.4095489809073 5.000000000000016
vertex 90.92406003290273 79.40954898090729 1.9999999999999998
vertex 90.92406003290273 79.40954898090729 7.999999999999999
endloop
endfacet
facet normal 0.0 -1.0 0.0
outer loop
vertex 39.92406003290272 79.40954898090729 1.9999999999999998
vertex 74.92406003290273 79.4095489809073 5.000000000000016
vertex 43.69406003290272 79.4095489809073 4.999999999999999
endloop
endfacet
facet normal 0.0 -1.0 0.0
outer loop
vertex 74.92406003290273 79.4095489809073 5.000000000000016
vertex 90.92406003290273 79.40954898090729 7.999999999999999
vertex 74.92406003290273 79.4095489809073 8.000000000000014
endloop
endfacet
facet normal 0.0 -1.0 0.0
outer loop
vertex 43.69406003290272 79.4095489809073 4.999999999999999
vertex 39.92406003290272 79.40954898090729 7.999999999999999
vertex 39.92406003290272 79.40954898090729 1.9999999999999998
endloop
endfacet
facet normal 0.0 -1.0 0.0
outer loop
vertex 39.92406003290272 79.40954898090729 7.999999999999999
vertex 43.69406003290272 79.4095489809073 4.999999999999999
vertex 43.69406003290272 79.4095489809073 7.9999999999999964
endloop
endfacet
facet normal -1.0 -0.0 -0.0
outer loop
vertex 90.92406003290273 79.40954898090729 7.999999999999999
vertex 90.92406003290273 6.409548980907278 1.9999999999999998
vertex 90.92406003290273 6.409548980907278 7.999999999999999
endloop
endfacet
facet normal -1.0 -0.0 -0.0
outer loop
vertex 90.92406003290273 6.409548980907278 1.9999999999999998
vertex 90.92406003290273 79.40954898090729 7.999999999999999
vertex 90.92406003290273 79.40954898090729 1.9999999999999998
endloop
endfacet
facet normal 0.0 1.0 0.0
outer loop
vertex 39.92406003290272 6.409548980907278 7.999999999999999
vertex 90.92406003290273 6.409548980907278 1.9999999999999998
vertex 39.92406003290272 6.409548980907278 1.9999999999999998
endloop
endfacet
facet normal 0.0 1.0 0.0
outer loop
vertex 90.92406003290273 6.409548980907278 1.9999999999999998
vertex 39.92406003290272 6.409548980907278 7.999999999999999
vertex 90.92406003290273 6.409548980907278 7.999999999999999
endloop
endfacet
facet normal 1.0 -0.0 0.0
outer loop
vertex 39.92406003290272 79.40954898090729 1.9999999999999998
vertex 39.92406003290272 6.409548980907278 7.999999999999999
vertex 39.92406003290272 6.409548980907278 1.9999999999999998
endloop
endfacet
facet normal 1.0 -0.0 0.0
outer loop
vertex 39.92406003290272 6.409548980907278 7.999999999999999
vertex 39.92406003290272 79.40954898090729 1.9999999999999998
vertex 39.92406003290272 79.40954898090729 7.999999999999999
endloop
endfacet
facet normal -6.061302288693707e-16 8.830303050837396e-16 1.0
outer loop
vertex 74.92406003290273 79.4095489809073 5.000000000000016
vertex 43.69406003290272 81.3095489809073 4.999999999999999
vertex 43.69406003290272 79.4095489809073 4.999999999999999
endloop
endfacet
facet normal -6.061302288693707e-16 8.830303050837396e-16 1.0
outer loop
vertex 43.69406003290272 81.3095489809073 4.999999999999999
vertex 74.92406003290273 79.4095489809073 5.000000000000016
vertex 43.69406003290272 83.40954898090729 4.999999999999992
endloop
endfacet
facet normal -6.061302288693707e-16 8.830303050837396e-16 1.0
outer loop
vertex 43.69406003290272 83.40954898090729 4.999999999999992
vertex 74.92406003290273 79.4095489809073 5.000000000000016
vertex 74.82406003290272 81.3095489809073 5.000000000000015
endloop
endfacet
facet normal -6.061302288693707e-16 8.830303050837396e-16 1.0
outer loop
vertex 74.82406003290272 81.3095489809073 5.000000000000015
vertex 74.92406003290273 79.4095489809073 5.000000000000016
vertex 74.92406003290273 81.3095489809073 5.000000000000015
endloop
endfacet
facet normal -6.061302288693707e-16 8.830303050837396e-16 1.0
outer loop
vertex 74.82406003290272 83.40954898090729 5.000000000000016
vertex 43.69406003290272 83.40954898090729 4.999999999999992
vertex 74.82406003290272 81.3095489809073 5.000000000000015
endloop
endfacet
facet normal -6.891250126062875e-17 -4.373247461406417e-17 1.0
outer loop
vertex 38.02406003290272 4.509548980907276 7.999999999999999
vertex 39.92406003290272 6.409548980907278 7.999999999999999
vertex 38.02406003290272 81.30954898090728 7.999999999999999
endloop
endfacet
facet normal -6.891250126062875e-17 -4.373247461406417e-17 1.0
outer loop
vertex 39.92406003290272 6.409548980907278 7.999999999999999
vertex 38.02406003290272 4.509548980907276 7.999999999999999
vertex 92.82406003290272 4.509548980907276 7.999999999999999
endloop
endfacet
facet normal -6.891250126062875e-17 -4.373247461406417e-17 1.0
outer loop
vertex 39.92406003290272 6.409548980907278 7.999999999999999
vertex 92.82406003290272 4.509548980907276 7.999999999999999
vertex 90.92406003290273 6.409548980907278 7.999999999999999
endloop
endfacet
facet normal -6.891250126062875e-17 -4.373247461406417e-17 1.0
outer loop
vertex 90.92406003290273 6.409548980907278 7.999999999999999
vertex 92.82406003290272 4.509548980907276 7.999999999999999
vertex 90.92406003290273 79.40954898090729 7.999999999999999
endloop
endfacet
facet normal -6.891250126062875e-17 -4.373247461406417e-17 1.0
outer loop
vertex 90.92406003290273 79.40954898090729 7.999999999999999
vertex 74.92406003290273 81.3095489809073 8.000000000000014
vertex 74.92406003290273 79.4095489809073 8.000000000000014
endloop
endfacet
facet normal -6.891250126062875e-17 -4.373247461406417e-17 1.0
outer loop
vertex 74.92406003290273 81.3095489809073 8.000000000000014
vertex 90.92406003290273 79.40954898090729 7.999999999999999
vertex 92.82406003290272 81.30954898090728 7.999999999999999
endloop
endfacet
facet normal -6.891250126062875e-17 -4.373247461406417e-17 1.0
outer loop
vertex 92.82406003290272 81.30954898090728 7.999999999999999
vertex 90.92406003290273 79.40954898090729 7.999999999999999
vertex 92.82406003290272 4.509548980907276 7.999999999999999
endloop
endfacet
facet normal -6.891250126062875e-17 -4.373247461406417e-17 1.0
outer loop
vertex 38.02406003290272 81.30954898090728 7.999999999999999
vertex 39.92406003290272 79.40954898090729 7.999999999999999
vertex 43.69406003290272 81.3095489809073 7.9999999999999964
endloop
endfacet
facet normal -6.891250126062875e-17 -4.373247461406417e-17 1.0
outer loop
vertex 39.92406003290272 79.40954898090729 7.999999999999999
vertex 38.02406003290272 81.30954898090728 7.999999999999999
vertex 39.92406003290272 6.409548980907278 7.999999999999999
endloop
endfacet
facet normal -6.891250126062875e-17 -4.373247461406417e-17 1.0
outer loop
vertex 43.69406003290272 81.3095489809073 7.9999999999999964
vertex 39.92406003290272 79.40954898090729 7.999999999999999
vertex 43.69406003290272 79.4095489809073 7.9999999999999964
endloop
endfacet
facet normal -1.0 -0.0 -6.891250126062875e-17
outer loop
vertex 74.92406003290273 81.3095489809073 8.000000000000014
vertex 74.92406003290273 79.4095489809073 5.000000000000016
vertex 74.92406003290273 79.4095489809073 8.000000000000014
endloop
endfacet
facet normal -1.0 -0.0 -6.891250126062875e-17
outer loop
vertex 74.92406003290273 79.4095489809073 5.000000000000016
vertex 74.92406003290273 81.3095489809073 8.000000000000014
vertex 74.92406003290273 81.3095489809073 5.000000000000015
endloop
endfacet
facet normal 1.0 0.0 0.0
outer loop
vertex 74.82406003290272 83.40954898090729 2.000000000000011
vertex 74.82406003290272 81.3095489809073 5.000000000000015
vertex 74.82406003290272 81.30954898090728 2.0000000000000107
endloop
endfacet
facet normal 1.0 0.0 0.0
outer loop
vertex 74.82406003290272 81.3095489809073 5.000000000000015
vertex 74.82406003290272 83.40954898090729 2.000000000000011
vertex 74.82406003290272 83.40954898090729 5.000000000000016
endloop
endfacet
facet normal -1.0 -4.4066248390209726e-30 -1.4099832412739481e-15
outer loop
vertex 43.69406003290272 81.3095489809073 4.999999999999999
vertex 43.694060032902726 83.40954898090729 1.9999999999999887
vertex 43.694060032902726 81.30954898090728 1.999999999999995
endloop
endfacet
facet normal -1.0 -4.4066248390209726e-30 -1.4099832412739481e-15
outer loop
vertex 43.694060032902726 83.40954898090729 1.9999999999999887
vertex 43.69406003290272 81.3095489809073 4.999999999999999
vertex 43.69406003290272 83.40954898090729 4.999999999999992
endloop
endfacet
facet normal 1.0 -0.0 -0.0
outer loop
vertex 43.69406003290272 81.3095489809073 4.999999999999999
vertex 43.69406003290272 79.4095489809073 7.9999999999999964
vertex 43.69406003290272 79.4095489809073 4.999999999999999
endloop
endfacet
facet normal 1.0 -0.0 -0.0
outer loop
vertex 43.69406003290272 79.4095489809073 7.9999999999999964
vertex 43.69406003290272 81.3095489809073 4.999999999999999
vertex 43.69406003290272 81.3095489809073 7.9999999999999964
endloop
endfacet
endsolid ardunio-cabus-case-top
