solid ardunio-cabus-case-bottom-logo
facet normal 0.0 0.0 -1.0
outer loop
vertex 1.9999999999999998 82.0 0.0
vertex -57.0 1.000000000000002 0.0
vertex -57.0 82.0 0.0
endloop
endfacet
facet normal 0.0 0.0 -1.0
outer loop
vertex -57.0 1.000000000000002 0.0
vertex 1.9999999999999998 82.0 0.0
vertex 1.9999999999999998 1.000000000000002 0.0
endloop
endfacet
facet normal -3.644178587569601e-17 1.1275488525525978e-16 1.0
outer loop
vertex -57.0 1.000000000000002 36.999999999999986
vertex -55.0 3.0000000000000004 36.999999999999986
vertex -57.0 51.62764218635432 36.999999999999986
endloop
endfacet
facet normal -3.644178587569601e-17 1.1275488525525978e-16 1.0
outer loop
vertex -55.0 3.0000000000000004 36.999999999999986
vertex -57.0 1.000000000000002 36.999999999999986
vertex 1.9999999999999998 1.000000000000002 36.999999999999986
endloop
endfacet
facet normal -3.644178587569601e-17 1.1275488525525978e-16 1.0
outer loop
vertex -55.0 3.0000000000000004 36.999999999999986
vertex 1.9999999999999998 1.000000000000002 36.999999999999986
vertex -52.00000000000001 3.0 36.999999999999986
endloop
endfacet
facet normal -3.644178587569601e-17 1.1275488525525978e-16 1.0
outer loop
vertex -52.00000000000001 3.0 36.999999999999986
vertex 1.9999999999999998 1.000000000000002 36.999999999999986
vertex -3.0 3.0 36.999999999999986
endloop
endfacet
facet normal -3.644178587569601e-17 1.1275488525525978e-16 1.0
outer loop
vertex -3.0 3.0 36.999999999999986
vertex 1.9999999999999998 1.000000000000002 36.999999999999986
vertex 1.561777154764044e-16 3.0000000000000004 36.999999999999986
endloop
endfacet
facet normal -3.644178587569601e-17 1.1275488525525978e-16 1.0
outer loop
vertex 1.561777154764044e-16 3.0000000000000004 36.999999999999986
vertex 1.9999999999999998 1.000000000000002 36.999999999999986
vertex 1.561777154764044e-16 80.0 36.999999999999986
endloop
endfacet
facet normal -3.644178587569601e-17 1.1275488525525978e-16 1.0
outer loop
vertex -3.0 80.0 36.99999999999998
vertex -5.766491183248183 81.99999999999999 36.99999999999997
vertex -5.766491183248183 80.0 36.99999999999997
endloop
endfacet
facet normal -3.644178587569601e-17 1.1275488525525978e-16 1.0
outer loop
vertex -5.766491183248183 81.99999999999999 36.99999999999997
vertex -3.0 80.0 36.99999999999998
vertex 1.9999999999999998 82.0 36.999999999999986
endloop
endfacet
facet normal -3.644178587569601e-17 1.1275488525525978e-16 1.0
outer loop
vertex 1.9999999999999998 82.0 36.999999999999986
vertex -3.0 80.0 36.99999999999998
vertex 1.561777154764044e-16 80.0 36.999999999999986
endloop
endfacet
facet normal -3.644178587569601e-17 1.1275488525525978e-16 1.0
outer loop
vertex 1.9999999999999998 82.0 36.999999999999986
vertex 1.561777154764044e-16 80.0 36.999999999999986
vertex 1.9999999999999998 1.000000000000002 36.999999999999986
endloop
endfacet
facet normal -3.644178587569601e-17 1.1275488525525978e-16 1.0
outer loop
vertex 1.561777154764044e-16 3.0000000000000004 36.999999999999986
vertex 0.0 77.0 36.99999999999998
vertex 0.0 6.0 36.999999999999986
endloop
endfacet
facet normal -3.644178587569601e-17 1.1275488525525978e-16 1.0
outer loop
vertex 0.0 77.0 36.99999999999998
vertex 1.561777154764044e-16 3.0000000000000004 36.999999999999986
vertex 1.561777154764044e-16 80.0 36.999999999999986
endloop
endfacet
facet normal -3.644178587569601e-17 1.1275488525525978e-16 1.0
outer loop
vertex -55.0 3.0000000000000004 36.999999999999986
vertex -55.0 51.62764218635432 36.999999999999986
vertex -57.0 51.62764218635432 36.999999999999986
endloop
endfacet
facet normal -3.644178587569601e-17 1.1275488525525978e-16 1.0
outer loop
vertex -55.0 51.62764218635432 36.999999999999986
vertex -55.0 3.0000000000000004 36.999999999999986
vertex -55.0 6.0 36.999999999999986
endloop
endfacet
facet normal -1.0 0.0 0.0
outer loop
vertex -57.0 82.0 36.999999999999986
vertex -57.0 77.0 19.000000000000004
vertex -57.0 77.0 36.999999999999986
endloop
endfacet
facet normal -1.0 0.0 0.0
outer loop
vertex -57.0 51.62764218635432 36.999999999999986
vertex -57.0 1.000000000000002 0.0
vertex -57.0 1.000000000000002 36.999999999999986
endloop
endfacet
facet normal -1.0 0.0 0.0
outer loop
vertex -57.0 1.000000000000002 0.0
vertex -57.0 51.62764218635432 36.999999999999986
vertex -57.0 51.62764218635432 19.000000000000004
endloop
endfacet
facet normal -1.0 0.0 0.0
outer loop
vertex -57.0 1.000000000000002 0.0
vertex -57.0 51.62764218635432 19.000000000000004
vertex -57.0 82.0 0.0
endloop
endfacet
facet normal -1.0 0.0 0.0
outer loop
vertex -57.0 82.0 0.0
vertex -57.0 51.62764218635432 19.000000000000004
vertex -57.0 77.0 19.000000000000004
endloop
endfacet
facet normal -1.0 0.0 0.0
outer loop
vertex -57.0 82.0 0.0
vertex -57.0 77.0 19.000000000000004
vertex -57.0 82.0 36.999999999999986
endloop
endfacet
facet normal 1.9656799676726562e-17 1.0 1.7406208303808874e-16
outer loop
vertex -57.0 82.0 0.0
vertex -37.0 81.99999999999999 1.9999999999999978
vertex 1.9999999999999998 82.0 0.0
endloop
endfacet
facet normal 1.9656799676726562e-17 1.0 1.7406208303808874e-16
outer loop
vertex -37.0 81.99999999999999 1.9999999999999978
vertex -57.0 82.0 0.0
vertex -57.0 82.0 36.999999999999986
endloop
endfacet
facet normal 1.9656799676726562e-17 1.0 1.7406208303808874e-16
outer loop
vertex -37.0 81.99999999999999 1.9999999999999978
vertex -57.0 82.0 36.999999999999986
vertex -37.0 81.99999999999999 36.99999999999997
endloop
endfacet
facet normal 1.9656799676726562e-17 1.0 1.7406208303808874e-16
outer loop
vertex 1.9999999999999998 82.0 0.0
vertex -5.76649118324818 81.99999999999999 1.9999999999999978
vertex 1.9999999999999998 82.0 36.999999999999986
endloop
endfacet
facet normal 1.9656799676726562e-17 1.0 1.7406208303808874e-16
outer loop
vertex -5.76649118324818 81.99999999999999 1.9999999999999978
vertex 1.9999999999999998 82.0 0.0
vertex -37.0 81.99999999999999 1.9999999999999978
endloop
endfacet
facet normal 1.9656799676726562e-17 1.0 1.7406208303808874e-16
outer loop
vertex 1.9999999999999998 82.0 36.999999999999986
vertex -5.76649118324818 81.99999999999999 1.9999999999999978
vertex -5.766491183248183 81.99999999999999 36.99999999999997
endloop
endfacet
facet normal 1.0 0.0 0.0
outer loop
vertex 1.9999999999999998 82.0 0.0
vertex 1.9999999999999998 1.000000000000002 36.999999999999986
vertex 1.9999999999999998 1.000000000000002 0.0
endloop
endfacet
facet normal 1.0 0.0 0.0
outer loop
vertex 1.9999999999999998 1.000000000000002 36.999999999999986
vertex 1.9999999999999998 82.0 0.0
vertex 1.9999999999999998 82.0 36.999999999999986
endloop
endfacet
facet normal -0.0 -1.0 -0.0
outer loop
vertex 1.9999999999999998 1.000000000000002 36.999999999999986
vertex -57.0 1.000000000000002 0.0
vertex 1.9999999999999998 1.000000000000002 0.0
endloop
endfacet
facet normal -0.0 -1.0 -0.0
outer loop
vertex -57.0 1.000000000000002 0.0
vertex 1.9999999999999998 1.000000000000002 36.999999999999986
vertex -57.0 1.000000000000002 36.999999999999986
endloop
endfacet
facet normal -2.364751767335764e-16 -1.0 6.080790258863395e-17
outer loop
vertex -37.0 80.0 36.99999999999997
vertex -52.00000000000001 80.0 1.9999999999999998
vertex -37.0 80.0 1.9999999999999978
endloop
endfacet
facet normal -2.364751767335764e-16 -1.0 6.080790258863395e-17
outer loop
vertex -52.00000000000001 80.0 1.9999999999999998
vertex -37.0 80.0 36.99999999999997
vertex -52.000000000000014 80.00000000000001 29.99999999999999
endloop
endfacet
facet normal -2.364751767335764e-16 -1.0 6.080790258863395e-17
outer loop
vertex -52.000000000000014 80.00000000000001 29.99999999999999
vertex -37.0 80.0 36.99999999999997
vertex -52.00000000000001 80.0 36.999999999999986
endloop
endfacet
facet normal 1.0 -0.0 -0.0
outer loop
vertex -55.0 6.0 1.9999999999999998
vertex -55.0 6.0 36.999999999999986
vertex -55.0 5.999999999999995 30.0
endloop
endfacet
facet normal 1.0 -0.0 -0.0
outer loop
vertex -55.0 6.0 36.999999999999986
vertex -55.0 6.0 1.9999999999999998
vertex -55.0 77.0 1.9999999999999998
endloop
endfacet
facet normal 1.0 -0.0 -0.0
outer loop
vertex -55.0 6.0 36.999999999999986
vertex -55.0 77.0 1.9999999999999998
vertex -55.0 51.62764218635432 19.000000000000004
endloop
endfacet
facet normal 1.0 -0.0 -0.0
outer loop
vertex -55.0 51.62764218635432 19.000000000000004
vertex -55.0 77.0 1.9999999999999998
vertex -55.0 77.0 19.000000000000004
endloop
endfacet
facet normal 1.0 -0.0 -0.0
outer loop
vertex -55.0 51.62764218635432 36.999999999999986
vertex -55.0 6.0 36.999999999999986
vertex -55.0 51.62764218635432 19.000000000000004
endloop
endfacet
facet normal -1.0 0.0 0.0
outer loop
vertex 0.0 77.0 36.99999999999998
vertex 0.0 6.0 29.999999999999996
vertex 0.0 6.0 36.999999999999986
endloop
endfacet
facet normal -1.0 0.0 0.0
outer loop
vertex 0.0 6.0 29.999999999999996
vertex 0.0 77.0 36.99999999999998
vertex 0.0 6.0 1.9999999999999998
endloop
endfacet
facet normal -1.0 0.0 0.0
outer loop
vertex 0.0 6.0 1.9999999999999998
vertex 0.0 77.0 36.99999999999998
vertex 1.3159843585223508e-14 77.0 29.999999999999986
endloop
endfacet
facet normal -1.0 0.0 0.0
outer loop
vertex 0.0 77.0 1.9999999999999998
vertex 0.0 6.0 1.9999999999999998
vertex 1.3159843585223508e-14 77.0 29.999999999999986
endloop
endfacet
facet normal 1.0 -0.0 -0.0
outer loop
vertex -37.0 81.99999999999999 1.9999999999999978
vertex -37.0 80.0 36.99999999999997
vertex -37.0 80.0 1.9999999999999978
endloop
endfacet
facet normal 1.0 -0.0 -0.0
outer loop
vertex -37.0 80.0 36.99999999999997
vertex -37.0 81.99999999999999 1.9999999999999978
vertex -37.0 81.99999999999999 36.99999999999997
endloop
endfacet
facet normal -0.0 -0.0 1.0
outer loop
vertex -5.76649118324818 80.0 1.9999999999999978
vertex -37.0 81.99999999999999 1.9999999999999978
vertex -37.0 80.0 1.9999999999999978
endloop
endfacet
facet normal -0.0 -0.0 1.0
outer loop
vertex -37.0 81.99999999999999 1.9999999999999978
vertex -5.76649118324818 80.0 1.9999999999999978
vertex -5.76649118324818 81.99999999999999 1.9999999999999978
endloop
endfacet
facet normal -1.0 6.407133821984613e-46 -8.057047092993999e-17
outer loop
vertex -5.766491183248183 81.99999999999999 36.99999999999997
vertex -5.76649118324818 80.0 1.9999999999999978
vertex -5.766491183248183 80.0 36.99999999999997
endloop
endfacet
facet normal -1.0 6.407133821984613e-46 -8.057047092993999e-17
outer loop
vertex -5.76649118324818 80.0 1.9999999999999978
vertex -5.766491183248183 81.99999999999999 36.99999999999997
vertex -5.76649118324818 81.99999999999999 1.9999999999999978
endloop
endfacet
facet normal -0.0 1.0 -0.0
outer loop
vertex -52.00000000000001 2.9999999999999925 30.0
vertex -3.0 3.0 1.9999999999999998
vertex -52.00000000000001 3.0 1.9999999999999998
endloop
endfacet
facet normal -0.0 1.0 -0.0
outer loop
vertex -3.0 3.0 1.9999999999999998
vertex -52.00000000000001 2.9999999999999925 30.0
vertex -3.0 3.0 29.999999999999996
endloop
endfacet
facet normal -0.0 1.0 -0.0
outer loop
vertex -3.0 3.0 29.999999999999996
vertex -52.00000000000001 2.9999999999999925 30.0
vertex -3.0 3.0 36.999999999999986
endloop
endfacet
facet normal -0.0 1.0 -0.0
outer loop
vertex -3.0 3.0 36.999999999999986
vertex -52.00000000000001 2.9999999999999925 30.0
vertex -52.00000000000001 3.0 36.999999999999986
endloop
endfacet
facet normal 2.2866803965006606e-18 7.474406789995436e-18 1.0
outer loop
vertex 0.0 6.0 1.9999999999999998
vertex -3.0 77.0 1.9999999999999998
vertex -3.0 6.0 1.9999999999999998
endloop
endfacet
facet normal 2.2866803965006606e-18 7.474406789995436e-18 1.0
outer loop
vertex -3.0 77.0 1.9999999999999998
vertex 0.0 6.0 1.9999999999999998
vertex 0.0 77.0 1.9999999999999998
endloop
endfacet
facet normal 2.2866803965006606e-18 7.474406789995436e-18 1.0
outer loop
vertex -3.0 3.0 1.9999999999999998
vertex -52.00000000000001 6.0 1.9999999999999998
vertex -52.00000000000001 3.0 1.9999999999999998
endloop
endfacet
facet normal 2.2866803965006606e-18 7.474406789995436e-18 1.0
outer loop
vertex -52.00000000000001 6.0 1.9999999999999998
vertex -3.0 3.0 1.9999999999999998
vertex -52.00000000000001 77.0 1.9999999999999998
endloop
endfacet
facet normal 2.2866803965006606e-18 7.474406789995436e-18 1.0
outer loop
vertex -52.00000000000001 77.0 1.9999999999999998
vertex -3.0 3.0 1.9999999999999998
vertex -52.00000000000001 80.0 1.9999999999999998
endloop
endfacet
facet normal 2.2866803965006606e-18 7.474406789995436e-18 1.0
outer loop
vertex -52.00000000000001 80.0 1.9999999999999998
vertex -3.0 3.0 1.9999999999999998
vertex -37.0 80.0 1.9999999999999978
endloop
endfacet
facet normal 2.2866803965006606e-18 7.474406789995436e-18 1.0
outer loop
vertex -37.0 80.0 1.9999999999999978
vertex -3.0 3.0 1.9999999999999998
vertex -5.76649118324818 80.0 1.9999999999999978
endloop
endfacet
facet normal 2.2866803965006606e-18 7.474406789995436e-18 1.0
outer loop
vertex -5.76649118324818 80.0 1.9999999999999978
vertex -3.0 3.0 1.9999999999999998
vertex -3.0 80.0 1.9999999999999998
endloop
endfacet
facet normal 2.2866803965006606e-18 7.474406789995436e-18 1.0
outer loop
vertex -3.0 80.0 1.9999999999999998
vertex -3.0 3.0 1.9999999999999998
vertex -3.0 6.0 1.9999999999999998
endloop
endfacet
facet normal 2.2866803965006606e-18 7.474406789995436e-18 1.0
outer loop
vertex -3.0 80.0 1.9999999999999998
vertex -3.0 6.0 1.9999999999999998
vertex -3.0 77.0 1.9999999999999998
endloop
endfacet
facet normal 2.2866803965006606e-18 7.474406789995436e-18 1.0
outer loop
vertex -52.00000000000001 6.0 1.9999999999999998
vertex -55.0 77.0 1.9999999999999998
vertex -55.0 6.0 1.9999999999999998
endloop
endfacet
facet normal 2.2866803965006606e-18 7.474406789995436e-18 1.0
outer loop
vertex -55.0 77.0 1.9999999999999998
vertex -52.00000000000001 6.0 1.9999999999999998
vertex -52.00000000000001 77.0 1.9999999999999998
endloop
endfacet
facet normal -0.0 1.0 -0.0
outer loop
vertex -3.0 6.0 29.999999999999996
vertex 0.0 6.0 1.9999999999999998
vertex -3.0 6.0 1.9999999999999998
endloop
endfacet
facet normal -0.0 1.0 -0.0
outer loop
vertex 0.0 6.0 1.9999999999999998
vertex -3.0 6.0 29.999999999999996
vertex 0.0 6.0 29.999999999999996
endloop
endfacet
facet normal -1.0 0.0 0.0
outer loop
vertex -3.0 6.0 29.999999999999996
vertex -3.0 3.0 1.9999999999999998
vertex -3.0 3.0 29.999999999999996
endloop
endfacet
facet normal -1.0 0.0 0.0
outer loop
vertex -3.0 3.0 1.9999999999999998
vertex -3.0 6.0 29.999999999999996
vertex -3.0 6.0 1.9999999999999998
endloop
endfacet
facet normal 1.0 -0.0 -0.0
outer loop
vertex -52.00000000000001 3.0 1.9999999999999998
vertex -52.00000000000001 5.999999999999995 30.0
vertex -52.00000000000001 2.9999999999999925 30.0
endloop
endfacet
facet normal 1.0 -0.0 -0.0
outer loop
vertex -52.00000000000001 5.999999999999995 30.0
vertex -52.00000000000001 3.0 1.9999999999999998
vertex -52.00000000000001 6.0 1.9999999999999998
endloop
endfacet
facet normal -0.0 1.0 -0.0
outer loop
vertex -55.0 5.999999999999995 30.0
vertex -52.00000000000001 6.0 1.9999999999999998
vertex -55.0 6.0 1.9999999999999998
endloop
endfacet
facet normal -0.0 1.0 -0.0
outer loop
vertex -52.00000000000001 6.0 1.9999999999999998
vertex -55.0 5.999999999999995 30.0
vertex -52.00000000000001 5.999999999999995 30.0
endloop
endfacet
facet normal 0.0 -1.0 0.0
outer loop
vertex -52.000000000000014 77.00000000000001 29.99999999999999
vertex -55.0 77.0 1.9999999999999998
vertex -52.00000000000001 77.0 1.9999999999999998
endloop
endfacet
facet normal 0.0 -1.0 0.0
outer loop
vertex -55.0 77.0 1.9999999999999998
vertex -52.000000000000014 77.00000000000001 29.99999999999999
vertex -55.0 77.0 19.000000000000004
endloop
endfacet
facet normal 0.0 -1.0 0.0
outer loop
vertex -55.0 77.0 19.000000000000004
vertex -52.000000000000014 77.00000000000001 29.99999999999999
vertex -55.000000000000014 77.00000000000001 29.99999999999999
endloop
endfacet
facet normal 1.0 -0.0 -0.0
outer loop
vertex -52.00000000000001 80.0 1.9999999999999998
vertex -52.000000000000014 77.00000000000001 29.99999999999999
vertex -52.00000000000001 77.0 1.9999999999999998
endloop
endfacet
facet normal 1.0 -0.0 -0.0
outer loop
vertex -52.000000000000014 77.00000000000001 29.99999999999999
vertex -52.00000000000001 80.0 1.9999999999999998
vertex -52.000000000000014 80.00000000000001 29.99999999999999
endloop
endfacet
facet normal -1.0 0.0 0.0
outer loop
vertex -2.9999999999999867 79.99999999999999 29.999999999999986
vertex -3.0 77.0 1.9999999999999998
vertex -2.9999999999999867 77.0 29.999999999999986
endloop
endfacet
facet normal -1.0 0.0 0.0
outer loop
vertex -3.0 77.0 1.9999999999999998
vertex -2.9999999999999867 79.99999999999999 29.999999999999986
vertex -3.0 80.0 1.9999999999999998
endloop
endfacet
facet normal 0.0 -1.0 0.0
outer loop
vertex 1.3159843585223508e-14 77.0 29.999999999999986
vertex -3.0 77.0 1.9999999999999998
vertex 0.0 77.0 1.9999999999999998
endloop
endfacet
facet normal 0.0 -1.0 0.0
outer loop
vertex -3.0 77.0 1.9999999999999998
vertex 1.3159843585223508e-14 77.0 29.999999999999986
vertex -2.9999999999999867 77.0 29.999999999999986
endloop
endfacet
facet normal 9.399888275159677e-16 9.39988827515966e-16 1.0
outer loop
vertex -52.00000000000001 2.9999999999999925 30.0
vertex -55.0 5.999999999999995 30.0
vertex -55.0 2.999999999999993 30.0
endloop
endfacet
facet normal 9.399888275159677e-16 9.39988827515966e-16 1.0
outer loop
vertex -55.0 5.999999999999995 30.0
vertex -52.00000000000001 2.9999999999999925 30.0
vertex -52.00000000000001 5.999999999999995 30.0
endloop
endfacet
facet normal 2.3499720687899014e-16 1.0 -9.399888275159665e-16
outer loop
vertex -55.0 3.0000000000000004 36.999999999999986
vertex -52.00000000000001 2.9999999999999925 30.0
vertex -55.0 2.999999999999993 30.0
endloop
endfacet
facet normal 2.3499720687899014e-16 1.0 -9.399888275159665e-16
outer loop
vertex -52.00000000000001 2.9999999999999925 30.0
vertex -55.0 3.0000000000000004 36.999999999999986
vertex -52.00000000000001 3.0 36.999999999999986
endloop
endfacet
facet normal 1.0 -1.767157991709684e-30 -9.399888275159675e-16
outer loop
vertex -55.0 5.999999999999995 30.0
vertex -55.0 3.0000000000000004 36.999999999999986
vertex -55.0 2.999999999999993 30.0
endloop
endfacet
facet normal 1.0 -1.767157991709684e-30 -9.399888275159675e-16
outer loop
vertex -55.0 3.0000000000000004 36.999999999999986
vertex -55.0 5.999999999999995 30.0
vertex -55.0 6.0 36.999999999999986
endloop
endfacet
facet normal 9.399888275159675e-16 -9.399888275159675e-16 1.0
outer loop
vertex -52.000000000000014 77.00000000000001 29.99999999999999
vertex -55.000000000000014 80.00000000000001 29.999999999999996
vertex -55.000000000000014 77.00000000000001 29.99999999999999
endloop
endfacet
facet normal 9.399888275159675e-16 -9.399888275159675e-16 1.0
outer loop
vertex -55.000000000000014 80.00000000000001 29.999999999999996
vertex -52.000000000000014 77.00000000000001 29.99999999999999
vertex -52.000000000000014 80.00000000000001 29.99999999999999
endloop
endfacet
facet normal 1.0 1.767157991709687e-30 -9.399888275159675e-16
outer loop
vertex -55.000000000000014 77.00000000000001 29.99999999999999
vertex -55.0 80.0 36.999999999999986
vertex -55.0 77.0 36.999999999999986
endloop
endfacet
facet normal 1.0 1.767157991709687e-30 -9.399888275159675e-16
outer loop
vertex -55.0 80.0 36.999999999999986
vertex -55.000000000000014 77.00000000000001 29.99999999999999
vertex -55.000000000000014 80.00000000000001 29.999999999999996
endloop
endfacet
facet normal -1.767157991709687e-30 -1.0 -9.399888275159675e-16
outer loop
vertex -52.00000000000001 80.0 36.999999999999986
vertex -55.000000000000014 80.00000000000001 29.999999999999996
vertex -52.000000000000014 80.00000000000001 29.99999999999999
endloop
endfacet
facet normal -1.767157991709687e-30 -1.0 -9.399888275159675e-16
outer loop
vertex -55.000000000000014 80.00000000000001 29.999999999999996
vertex -52.00000000000001 80.0 36.999999999999986
vertex -55.0 80.0 36.999999999999986
endloop
endfacet
facet normal -1.879977655031932e-15 -1.879977655031935e-15 1.0
outer loop
vertex 1.3159843585223508e-14 77.0 29.999999999999986
vertex -2.9999999999999867 79.99999999999999 29.999999999999986
vertex -2.9999999999999867 77.0 29.999999999999986
endloop
endfacet
facet normal -1.879977655031932e-15 -1.879977655031935e-15 1.0
outer loop
vertex -2.9999999999999867 79.99999999999999 29.999999999999986
vertex 1.3159843585223508e-14 77.0 29.999999999999986
vertex 1.3316021300699914e-14 79.99999999999999 29.999999999999996
endloop
endfacet
facet normal 7.068631966838734e-30 -1.0 -1.879977655031935e-15
outer loop
vertex 1.3316021300699914e-14 79.99999999999999 29.999999999999996
vertex -3.0 80.0 36.99999999999998
vertex -2.9999999999999867 79.99999999999999 29.999999999999986
endloop
endfacet
facet normal 7.068631966838734e-30 -1.0 -1.879977655031935e-15
outer loop
vertex -3.0 80.0 36.99999999999998
vertex 1.3316021300699914e-14 79.99999999999999 29.999999999999996
vertex 1.561777154764044e-16 80.0 36.999999999999986
endloop
endfacet
facet normal -1.0 5.205923849214197e-17 -1.8799776550319326e-15
outer loop
vertex 0.0 77.0 36.99999999999998
vertex 1.3316021300699914e-14 79.99999999999999 29.999999999999996
vertex 1.3159843585223508e-14 77.0 29.999999999999986
endloop
endfacet
facet normal -1.0 5.205923849214197e-17 -1.8799776550319326e-15
outer loop
vertex 1.3316021300699914e-14 79.99999999999999 29.999999999999996
vertex 0.0 77.0 36.99999999999998
vertex 1.561777154764044e-16 80.0 36.999999999999986
endloop
endfacet
facet normal 0.0 0.0 1.0
outer loop
vertex 1.561777154764044e-16 3.0000000000000004 29.999999999999996
vertex -3.0 6.0 29.999999999999996
vertex -3.0 3.0 29.999999999999996
endloop
endfacet
facet normal 0.0 0.0 1.0
outer loop
vertex -3.0 6.0 29.999999999999996
vertex 1.561777154764044e-16 3.0000000000000004 29.999999999999996
vertex 0.0 6.0 29.999999999999996
endloop
endfacet
facet normal -1.0 -5.2059238492134815e-17 -0.0
outer loop
vertex 0.0 6.0 36.999999999999986
vertex 1.561777154764044e-16 3.0000000000000004 29.999999999999996
vertex 1.561777154764044e-16 3.0000000000000004 36.999999999999986
endloop
endfacet
facet normal -1.0 -5.2059238492134815e-17 -0.0
outer loop
vertex 1.561777154764044e-16 3.0000000000000004 29.999999999999996
vertex 0.0 6.0 36.999999999999986
vertex 0.0 6.0 29.999999999999996
endloop
endfacet
facet normal -2.3499720687899147e-16 1.0 -0.0
outer loop
vertex -3.0 3.0 36.999999999999986
vertex 1.561777154764044e-16 3.0000000000000004 29.999999999999996
vertex -3.0 3.0 29.999999999999996
endloop
endfacet
facet normal -2.3499720687899147e-16 1.0 -0.0
outer loop
vertex 1.561777154764044e-16 3.0000000000000004 29.999999999999996
vertex -3.0 3.0 36.999999999999986
vertex 1.561777154764044e-16 3.0000000000000004 36.999999999999986
endloop
endfacet
facet normal 8.352165399275378e-16 -1.0062582249658934e-15 1.0
outer loop
vertex -55.0 77.0 36.999999999999986
vertex -57.0 82.0 36.999999999999986
vertex -57.0 77.0 36.999999999999986
endloop
endfacet
facet normal 8.352165399275378e-16 -1.0062582249658934e-15 1.0
outer loop
vertex -57.0 82.0 36.999999999999986
vertex -55.0 77.0 36.999999999999986
vertex -55.0 80.0 36.999999999999986
endloop
endfacet
facet normal 8.352165399275378e-16 -1.0062582249658934e-15 1.0
outer loop
vertex -57.0 82.0 36.999999999999986
vertex -55.0 80.0 36.999999999999986
vertex -37.0 81.99999999999999 36.99999999999997
endloop
endfacet
facet normal 8.352165399275378e-16 -1.0062582249658934e-15 1.0
outer loop
vertex -37.0 81.99999999999999 36.99999999999997
vertex -55.0 80.0 36.999999999999986
vertex -52.00000000000001 80.0 36.999999999999986
endloop
endfacet
facet normal 8.352165399275378e-16 -1.0062582249658934e-15 1.0
outer loop
vertex -37.0 81.99999999999999 36.99999999999997
vertex -52.00000000000001 80.0 36.999999999999986
vertex -37.0 80.0 36.99999999999997
endloop
endfacet
facet normal 0.0 0.0 1.0
outer loop
vertex -55.0 51.62764218635432 19.000000000000004
vertex -57.0 77.0 19.000000000000004
vertex -57.0 51.62764218635432 19.000000000000004
endloop
endfacet
facet normal 0.0 0.0 1.0
outer loop
vertex -57.0 77.0 19.000000000000004
vertex -55.0 51.62764218635432 19.000000000000004
vertex -55.0 77.0 19.000000000000004
endloop
endfacet
facet normal -0.0 1.0 -0.0
outer loop
vertex -57.0 51.62764218635432 36.999999999999986
vertex -55.0 51.62764218635432 19.000000000000004
vertex -57.0 51.62764218635432 19.000000000000004
endloop
endfacet
facet normal -0.0 1.0 -0.0
outer loop
vertex -55.0 51.62764218635432 19.000000000000004
vertex -57.0 51.62764218635432 36.999999999999986
vertex -55.0 51.62764218635432 36.999999999999986
endloop
endfacet
facet normal -0.0 -1.0 -0.0
outer loop
vertex -55.000000000000014 77.00000000000001 29.99999999999999
vertex -57.0 77.0 19.000000000000004
vertex -55.0 77.0 19.000000000000004
endloop
endfacet
facet normal -0.0 -1.0 -0.0
outer loop
vertex -57.0 77.0 19.000000000000004
vertex -55.000000000000014 77.00000000000001 29.99999999999999
vertex -57.0 77.0 36.999999999999986
endloop
endfacet
facet normal -0.0 -1.0 -0.0
outer loop
vertex -57.0 77.0 36.999999999999986
vertex -55.000000000000014 77.00000000000001 29.99999999999999
vertex -55.0 77.0 36.999999999999986
endloop
endfacet
facet normal -1.2821756571943703e-15 -1.0 -6.080790258863383e-17
outer loop
vertex -3.0 80.0 1.9999999999999998
vertex -5.766491183248183 80.0 36.99999999999997
vertex -5.76649118324818 80.0 1.9999999999999978
endloop
endfacet
facet normal -1.2821756571943703e-15 -1.0 -6.080790258863383e-17
outer loop
vertex -5.766491183248183 80.0 36.99999999999997
vertex -3.0 80.0 1.9999999999999998
vertex -2.9999999999999867 79.99999999999999 29.999999999999986
endloop
endfacet
facet normal -1.2821756571943703e-15 -1.0 -6.080790258863383e-17
outer loop
vertex -5.766491183248183 80.0 36.99999999999997
vertex -2.9999999999999867 79.99999999999999 29.999999999999986
vertex -3.0 80.0 36.99999999999998
endloop
endfacet
endsolid ardunio-cabus-case-bottom-logo
